<svg data-v-0dd9719b="" version="1.0" xmlns="http://www.w3.org/2000/svg" xmlns:xlink="http://www.w3.org/1999/xlink" width="100%" height="100%" viewBox="0 0 340.000000 250.000000" preserveAspectRatio="xMidYMid meet" color-interpolation-filters="sRGB" style="margin: auto;"> <rect data-v-0dd9719b="" x="0" y="0" width="100%" height="100%" fill="#ffffff" fill-opacity="1" class="background"></rect> <rect data-v-0dd9719b="" x="0" y="0" width="100%" height="100%" fill="url(#watermark)" fill-opacity="1" class="watermarklayer"></rect> <g data-v-0dd9719b="" fill="#1b9fda" class="icon-text-wrapper icon-svg-group iconsvg" transform="translate(82.2450038877048,95.00000114112277)"><g class="iconsvg-imagesvg" transform="translate(0,0)"><g><rect fill="#1b9fda" fill-opacity="0" stroke-width="2" x="0" y="0" width="60" height="60" class="image-rect"></rect> <svg filter="url(#colors9913072525)" x="0" y="0" width="60" height="60" filtersec="colorsf16322614" class="image-svg-svg primary" style="overflow: visible;"><svg xmlns="http://www.w3.org/2000/svg" data-name="Layer 1" viewBox="0.9330000877380371 0.9330000877380371 3.133999824523926 3.133999824523926"><title>maze</title><path d="M2.77 1.478h.555v-.193h-.361V.933h-.569v.193h.375v.352zM2.396 1.93h.194v-.569h-.353V1h-.193v.555h.352v.375zM3.164 2.205h.194v-.36h.352v-.569h-.194v.375h-.352v.554z" fill="#000000"></path><path d="M2.763 2.059h-.35l-.01.439.194.004.006-.249h.354v-.569h-.194v.375zM4.067 2.395h-.193v.375h-.352v.555h.193v-.361h.352v-.569z" fill="#000000"></path><path d="M3.513 2.396H3.07v.194h.637v-.353H4v-.193h-.487v.352zM3.724 3.71v-.194h-.375v-.433h-.554v.194h.36v.433h.569z" fill="#000000"></path><path d="M2.747 2.503v.439h.569v-.194h-.375v-.245h-.194zM2.605 4.067v-.193H2.23v-.352h-.555v.193h.361v.352h.569zM2.956 4v-.555h-.352V3.07H2.41v.569h.353V4h.193zM1.484 3.349h.352v-.554h-.194v.36H1.29v.569h.194v-.375z" fill="#000000"></path><path d="M2.043 3.316h.194v-.44H2.6v-.194h-.557v.634zM1.126 2.23h.371v-.555h-.193v.361H.933v.569h.193V2.23z" fill="#000000"></path><path d="M1.304 2.763H1v.193h.497v-.352h.433V2.41h-.626v.353zM1.651 1.909h.554v-.193h-.36V1.29h-.569v.194h.375v.425zM1.684 2.237h.375v.255h.194v-.449h-.569v.194z" fill="#000000"></path></svg></svg> <defs><filter id="colors9913072525"><feColorMatrix type="matrix" values="0 0 0 0 0.0078125  0 0 0 0 0.1328125  0 0 0 0 0.265625  0 0 0 1 0" class="icon-fecolormatrix"></feColorMatrix></filter> <filter id="colorsf16322614"><feColorMatrix type="matrix" values="0 0 0 0 0.99609375  0 0 0 0 0.99609375  0 0 0 0 0.99609375  0 0 0 1 0" class="icon-fecolormatrix"></feColorMatrix></filter> <filter id="colorsb3003084293"><feColorMatrix type="matrix" values="0 0 0 0 0  0 0 0 0 0  0 0 0 0 0  0 0 0 1 0" class="icon-fecolormatrix"></feColorMatrix></filter></defs></g></g> <g transform="translate(67,6.715000152587891)"><g data-gra="path-name" fill-rule="" class="tp-name iconsvg-namesvg"><g transform="scale(1)"><g><path d="M5.66-46.57L34.35-46.57 34.35-41.44 11.99-41.44 11.99-25.16 31.1-25.16 31.1-20.02 11.99-20.02 11.99 0 5.66 0 5.66-46.57ZM48.75-46.57L48.75-5.3 68.9-5.3 68.9 0 42.45 0 42.45-46.57 48.75-46.57ZM95.55-46.57L114.17 0 109.3 0Q108.45 0 107.93-0.42 107.41-0.84 107.15-1.5L107.15-1.5 102.8-12.74 81.9-12.74 77.55-1.5Q77.32-0.91 76.77-0.46 76.21 0 75.4 0L75.4 0 70.53 0 89.15-46.57 95.55-46.57ZM90.97-36.2L83.66-17.29 101.04-17.29 93.73-36.24Q93.02-37.99 92.33-40.63L92.33-40.63Q91.98-39.29 91.63-38.17 91.29-37.05 90.97-36.2L90.97-36.2Z" transform="translate(-5.659999847412109, 46.56999969482422)"></path></g> <!----> <!----> <!----> <!----> <!----> <!----> <!----></g></g> <!----></g></g><defs v-gra="od"></defs></svg>